<mxfile host="app.diagrams.net" modified="2024-02-06T13:51:44.464Z" agent="Mozilla/5.0 (Windows NT 10.0; Win64; x64) AppleWebKit/537.36 (KHTML, like Gecko) Chrome/121.0.0.0 Safari/537.36" etag="1UO5_tN8S2iZ-ekDJOb_" version="23.1.1" type="github">
  <diagram name="Page-1" id="-MpMdFqczyg6XAbdb4Uz">
    <mxGraphModel dx="1050" dy="530" grid="1" gridSize="10" guides="1" tooltips="1" connect="1" arrows="1" fold="1" page="1" pageScale="1" pageWidth="850" pageHeight="1100" math="0" shadow="0">
      <root>
        <mxCell id="0" />
        <mxCell id="1" parent="0" />
        <mxCell id="ASZJDS9tyRknlTltrJZf-1" value="" style="whiteSpace=wrap;html=1;aspect=fixed;" vertex="1" parent="1">
          <mxGeometry x="150" y="20" width="280" height="280" as="geometry" />
        </mxCell>
        <mxCell id="ASZJDS9tyRknlTltrJZf-2" value="Prometheus" style="shape=hexagon;perimeter=hexagonPerimeter2;whiteSpace=wrap;html=1;fixedSize=1;" vertex="1" parent="1">
          <mxGeometry x="180" y="120" width="120" height="80" as="geometry" />
        </mxCell>
        <mxCell id="ASZJDS9tyRknlTltrJZf-3" value="" style="endArrow=none;html=1;rounded=0;exitX=1;exitY=0.5;exitDx=0;exitDy=0;" edge="1" parent="1" source="ASZJDS9tyRknlTltrJZf-2">
          <mxGeometry width="50" height="50" relative="1" as="geometry">
            <mxPoint x="400" y="300" as="sourcePoint" />
            <mxPoint x="510" y="160" as="targetPoint" />
            <Array as="points">
              <mxPoint x="310" y="160" />
            </Array>
          </mxGeometry>
        </mxCell>
        <mxCell id="ASZJDS9tyRknlTltrJZf-4" value="" style="whiteSpace=wrap;html=1;aspect=fixed;" vertex="1" parent="1">
          <mxGeometry x="440" y="370" width="270" height="270" as="geometry" />
        </mxCell>
        <mxCell id="ASZJDS9tyRknlTltrJZf-5" value="" style="endArrow=none;html=1;rounded=0;exitX=0.25;exitY=0;exitDx=0;exitDy=0;" edge="1" parent="1" source="ASZJDS9tyRknlTltrJZf-4">
          <mxGeometry width="50" height="50" relative="1" as="geometry">
            <mxPoint x="460" y="210" as="sourcePoint" />
            <mxPoint x="510" y="160" as="targetPoint" />
          </mxGeometry>
        </mxCell>
        <mxCell id="ASZJDS9tyRknlTltrJZf-6" value="VI-PROMETHEUS" style="text;strokeColor=none;align=center;fillColor=none;html=1;verticalAlign=middle;whiteSpace=wrap;rounded=0;" vertex="1" parent="1">
          <mxGeometry x="530" y="460" width="60" height="30" as="geometry" />
        </mxCell>
        <mxCell id="ASZJDS9tyRknlTltrJZf-7" value="FEDERATE ENDPOIND&amp;nbsp;" style="text;strokeColor=none;align=center;fillColor=none;html=1;verticalAlign=middle;whiteSpace=wrap;rounded=0;" vertex="1" parent="1">
          <mxGeometry x="350" y="130" width="60" height="30" as="geometry" />
        </mxCell>
        <mxCell id="ASZJDS9tyRknlTltrJZf-10" value="" style="shape=mxgraph.arrows2.wedgeArrow;html=1;bendable=0;startWidth=12;fillColor=strokeColor;defaultFillColor=invert;defaultGradientColor=invert;rounded=0;" edge="1" parent="1">
          <mxGeometry width="100" height="100" relative="1" as="geometry">
            <mxPoint x="510" y="330" as="sourcePoint" />
            <mxPoint x="510" y="370" as="targetPoint" />
          </mxGeometry>
        </mxCell>
        <mxCell id="ASZJDS9tyRknlTltrJZf-11" value="EKS CLUSTER" style="text;strokeColor=none;align=center;fillColor=none;html=1;verticalAlign=middle;whiteSpace=wrap;rounded=0;" vertex="1" parent="1">
          <mxGeometry x="240" y="20" width="60" height="30" as="geometry" />
        </mxCell>
      </root>
    </mxGraphModel>
  </diagram>
</mxfile>
